<?xml version="1.0" encoding="utf-8" standalone="no"?>
<!DOCTYPE svg PUBLIC "-//W3C//DTD SVG 1.1//EN"
  "http://www.w3.org/Graphics/SVG/1.1/DTD/svg11.dtd">
<svg xmlns:xlink="http://www.w3.org/1999/xlink" width="460.8pt" height="345.6pt" viewBox="0 0 460.8 345.6" xmlns="http://www.w3.org/2000/svg" version="1.1">
 <metadata>
  <rdf:RDF xmlns:dc="http://purl.org/dc/elements/1.1/" xmlns:cc="http://creativecommons.org/ns#" xmlns:rdf="http://www.w3.org/1999/02/22-rdf-syntax-ns#">
   <cc:Work>
    <dc:type rdf:resource="http://purl.org/dc/dcmitype/StillImage"/>
    <dc:date>2023-09-27T15:36:06.262569</dc:date>
    <dc:format>image/svg+xml</dc:format>
    <dc:creator>
     <cc:Agent>
      <dc:title>Matplotlib v3.7.1, https://matplotlib.org/</dc:title>
     </cc:Agent>
    </dc:creator>
   </cc:Work>
  </rdf:RDF>
 </metadata>
 <defs>
  <style type="text/css">*{stroke-linejoin: round; stroke-linecap: butt}</style>
 </defs>
 <g id="figure_1">
  <g id="patch_1">
   <path d="M 0 345.6 
L 460.8 345.6 
L 460.8 0 
L 0 0 
z
" style="fill: #ffffff"/>
  </g>
  <g id="axes_1">
   <g id="patch_2">
    <path d="M 57.6 119.740235 
L 414.72 119.740235 
L 414.72 41.472 
L 57.6 41.472 
z
" style="fill: #ffffff"/>
   </g>
   <g id="matplotlib.axis_1">
    <g id="xtick_1">
     <g id="line2d_1">
      <defs>
       <path id="m601f9be8af" d="M 0 0 
L 0 3.5 
" style="stroke: #000000; stroke-width: 0.8"/>
      </defs>
      <g>
       <use xlink:href="#m601f9be8af" x="73.832727" y="119.740235" style="stroke: #000000; stroke-width: 0.8"/>
      </g>
     </g>
     <g id="text_1">
      <!-- 0 -->
      <g transform="translate(70.651477 134.338673) scale(0.1 -0.1)">
       <defs>
        <path id="DejaVuSans-30" d="M 2034 4250 
Q 1547 4250 1301 3770 
Q 1056 3291 1056 2328 
Q 1056 1369 1301 889 
Q 1547 409 2034 409 
Q 2525 409 2770 889 
Q 3016 1369 3016 2328 
Q 3016 3291 2770 3770 
Q 2525 4250 2034 4250 
z
M 2034 4750 
Q 2819 4750 3233 4129 
Q 3647 3509 3647 2328 
Q 3647 1150 3233 529 
Q 2819 -91 2034 -91 
Q 1250 -91 836 529 
Q 422 1150 422 2328 
Q 422 3509 836 4129 
Q 1250 4750 2034 4750 
z
" transform="scale(0.015625)"/>
       </defs>
       <use xlink:href="#DejaVuSans-30"/>
      </g>
     </g>
    </g>
    <g id="xtick_2">
     <g id="line2d_2">
      <g>
       <use xlink:href="#m601f9be8af" x="139.419504" y="119.740235" style="stroke: #000000; stroke-width: 0.8"/>
      </g>
     </g>
     <g id="text_2">
      <!-- 20 -->
      <g transform="translate(133.057004 134.338673) scale(0.1 -0.1)">
       <defs>
        <path id="DejaVuSans-32" d="M 1228 531 
L 3431 531 
L 3431 0 
L 469 0 
L 469 531 
Q 828 903 1448 1529 
Q 2069 2156 2228 2338 
Q 2531 2678 2651 2914 
Q 2772 3150 2772 3378 
Q 2772 3750 2511 3984 
Q 2250 4219 1831 4219 
Q 1534 4219 1204 4116 
Q 875 4013 500 3803 
L 500 4441 
Q 881 4594 1212 4672 
Q 1544 4750 1819 4750 
Q 2544 4750 2975 4387 
Q 3406 4025 3406 3419 
Q 3406 3131 3298 2873 
Q 3191 2616 2906 2266 
Q 2828 2175 2409 1742 
Q 1991 1309 1228 531 
z
" transform="scale(0.015625)"/>
       </defs>
       <use xlink:href="#DejaVuSans-32"/>
       <use xlink:href="#DejaVuSans-30" x="63.623047"/>
      </g>
     </g>
    </g>
    <g id="xtick_3">
     <g id="line2d_3">
      <g>
       <use xlink:href="#m601f9be8af" x="205.006281" y="119.740235" style="stroke: #000000; stroke-width: 0.8"/>
      </g>
     </g>
     <g id="text_3">
      <!-- 40 -->
      <g transform="translate(198.643781 134.338673) scale(0.1 -0.1)">
       <defs>
        <path id="DejaVuSans-34" d="M 2419 4116 
L 825 1625 
L 2419 1625 
L 2419 4116 
z
M 2253 4666 
L 3047 4666 
L 3047 1625 
L 3713 1625 
L 3713 1100 
L 3047 1100 
L 3047 0 
L 2419 0 
L 2419 1100 
L 313 1100 
L 313 1709 
L 2253 4666 
z
" transform="scale(0.015625)"/>
       </defs>
       <use xlink:href="#DejaVuSans-34"/>
       <use xlink:href="#DejaVuSans-30" x="63.623047"/>
      </g>
     </g>
    </g>
    <g id="xtick_4">
     <g id="line2d_4">
      <g>
       <use xlink:href="#m601f9be8af" x="270.593058" y="119.740235" style="stroke: #000000; stroke-width: 0.8"/>
      </g>
     </g>
     <g id="text_4">
      <!-- 60 -->
      <g transform="translate(264.230558 134.338673) scale(0.1 -0.1)">
       <defs>
        <path id="DejaVuSans-36" d="M 2113 2584 
Q 1688 2584 1439 2293 
Q 1191 2003 1191 1497 
Q 1191 994 1439 701 
Q 1688 409 2113 409 
Q 2538 409 2786 701 
Q 3034 994 3034 1497 
Q 3034 2003 2786 2293 
Q 2538 2584 2113 2584 
z
M 3366 4563 
L 3366 3988 
Q 3128 4100 2886 4159 
Q 2644 4219 2406 4219 
Q 1781 4219 1451 3797 
Q 1122 3375 1075 2522 
Q 1259 2794 1537 2939 
Q 1816 3084 2150 3084 
Q 2853 3084 3261 2657 
Q 3669 2231 3669 1497 
Q 3669 778 3244 343 
Q 2819 -91 2113 -91 
Q 1303 -91 875 529 
Q 447 1150 447 2328 
Q 447 3434 972 4092 
Q 1497 4750 2381 4750 
Q 2619 4750 2861 4703 
Q 3103 4656 3366 4563 
z
" transform="scale(0.015625)"/>
       </defs>
       <use xlink:href="#DejaVuSans-36"/>
       <use xlink:href="#DejaVuSans-30" x="63.623047"/>
      </g>
     </g>
    </g>
    <g id="xtick_5">
     <g id="line2d_5">
      <g>
       <use xlink:href="#m601f9be8af" x="336.179835" y="119.740235" style="stroke: #000000; stroke-width: 0.8"/>
      </g>
     </g>
     <g id="text_5">
      <!-- 80 -->
      <g transform="translate(329.817335 134.338673) scale(0.1 -0.1)">
       <defs>
        <path id="DejaVuSans-38" d="M 2034 2216 
Q 1584 2216 1326 1975 
Q 1069 1734 1069 1313 
Q 1069 891 1326 650 
Q 1584 409 2034 409 
Q 2484 409 2743 651 
Q 3003 894 3003 1313 
Q 3003 1734 2745 1975 
Q 2488 2216 2034 2216 
z
M 1403 2484 
Q 997 2584 770 2862 
Q 544 3141 544 3541 
Q 544 4100 942 4425 
Q 1341 4750 2034 4750 
Q 2731 4750 3128 4425 
Q 3525 4100 3525 3541 
Q 3525 3141 3298 2862 
Q 3072 2584 2669 2484 
Q 3125 2378 3379 2068 
Q 3634 1759 3634 1313 
Q 3634 634 3220 271 
Q 2806 -91 2034 -91 
Q 1263 -91 848 271 
Q 434 634 434 1313 
Q 434 1759 690 2068 
Q 947 2378 1403 2484 
z
M 1172 3481 
Q 1172 3119 1398 2916 
Q 1625 2713 2034 2713 
Q 2441 2713 2670 2916 
Q 2900 3119 2900 3481 
Q 2900 3844 2670 4047 
Q 2441 4250 2034 4250 
Q 1625 4250 1398 4047 
Q 1172 3844 1172 3481 
z
" transform="scale(0.015625)"/>
       </defs>
       <use xlink:href="#DejaVuSans-38"/>
       <use xlink:href="#DejaVuSans-30" x="63.623047"/>
      </g>
     </g>
    </g>
    <g id="xtick_6">
     <g id="line2d_6">
      <g>
       <use xlink:href="#m601f9be8af" x="401.766612" y="119.740235" style="stroke: #000000; stroke-width: 0.8"/>
      </g>
     </g>
     <g id="text_6">
      <!-- 100 -->
      <g transform="translate(392.222862 134.338673) scale(0.1 -0.1)">
       <defs>
        <path id="DejaVuSans-31" d="M 794 531 
L 1825 531 
L 1825 4091 
L 703 3866 
L 703 4441 
L 1819 4666 
L 2450 4666 
L 2450 531 
L 3481 531 
L 3481 0 
L 794 0 
L 794 531 
z
" transform="scale(0.015625)"/>
       </defs>
       <use xlink:href="#DejaVuSans-31"/>
       <use xlink:href="#DejaVuSans-30" x="63.623047"/>
       <use xlink:href="#DejaVuSans-30" x="127.246094"/>
      </g>
     </g>
    </g>
    <g id="text_7">
     <!-- Timestep -->
     <g transform="translate(213.110781 148.016798) scale(0.1 -0.1)">
      <defs>
       <path id="DejaVuSans-54" d="M -19 4666 
L 3928 4666 
L 3928 4134 
L 2272 4134 
L 2272 0 
L 1638 0 
L 1638 4134 
L -19 4134 
L -19 4666 
z
" transform="scale(0.015625)"/>
       <path id="DejaVuSans-69" d="M 603 3500 
L 1178 3500 
L 1178 0 
L 603 0 
L 603 3500 
z
M 603 4863 
L 1178 4863 
L 1178 4134 
L 603 4134 
L 603 4863 
z
" transform="scale(0.015625)"/>
       <path id="DejaVuSans-6d" d="M 3328 2828 
Q 3544 3216 3844 3400 
Q 4144 3584 4550 3584 
Q 5097 3584 5394 3201 
Q 5691 2819 5691 2113 
L 5691 0 
L 5113 0 
L 5113 2094 
Q 5113 2597 4934 2840 
Q 4756 3084 4391 3084 
Q 3944 3084 3684 2787 
Q 3425 2491 3425 1978 
L 3425 0 
L 2847 0 
L 2847 2094 
Q 2847 2600 2669 2842 
Q 2491 3084 2119 3084 
Q 1678 3084 1418 2786 
Q 1159 2488 1159 1978 
L 1159 0 
L 581 0 
L 581 3500 
L 1159 3500 
L 1159 2956 
Q 1356 3278 1631 3431 
Q 1906 3584 2284 3584 
Q 2666 3584 2933 3390 
Q 3200 3197 3328 2828 
z
" transform="scale(0.015625)"/>
       <path id="DejaVuSans-65" d="M 3597 1894 
L 3597 1613 
L 953 1613 
Q 991 1019 1311 708 
Q 1631 397 2203 397 
Q 2534 397 2845 478 
Q 3156 559 3463 722 
L 3463 178 
Q 3153 47 2828 -22 
Q 2503 -91 2169 -91 
Q 1331 -91 842 396 
Q 353 884 353 1716 
Q 353 2575 817 3079 
Q 1281 3584 2069 3584 
Q 2775 3584 3186 3129 
Q 3597 2675 3597 1894 
z
M 3022 2063 
Q 3016 2534 2758 2815 
Q 2500 3097 2075 3097 
Q 1594 3097 1305 2825 
Q 1016 2553 972 2059 
L 3022 2063 
z
" transform="scale(0.015625)"/>
       <path id="DejaVuSans-73" d="M 2834 3397 
L 2834 2853 
Q 2591 2978 2328 3040 
Q 2066 3103 1784 3103 
Q 1356 3103 1142 2972 
Q 928 2841 928 2578 
Q 928 2378 1081 2264 
Q 1234 2150 1697 2047 
L 1894 2003 
Q 2506 1872 2764 1633 
Q 3022 1394 3022 966 
Q 3022 478 2636 193 
Q 2250 -91 1575 -91 
Q 1294 -91 989 -36 
Q 684 19 347 128 
L 347 722 
Q 666 556 975 473 
Q 1284 391 1588 391 
Q 1994 391 2212 530 
Q 2431 669 2431 922 
Q 2431 1156 2273 1281 
Q 2116 1406 1581 1522 
L 1381 1569 
Q 847 1681 609 1914 
Q 372 2147 372 2553 
Q 372 3047 722 3315 
Q 1072 3584 1716 3584 
Q 2034 3584 2315 3537 
Q 2597 3491 2834 3397 
z
" transform="scale(0.015625)"/>
       <path id="DejaVuSans-74" d="M 1172 4494 
L 1172 3500 
L 2356 3500 
L 2356 3053 
L 1172 3053 
L 1172 1153 
Q 1172 725 1289 603 
Q 1406 481 1766 481 
L 2356 481 
L 2356 0 
L 1766 0 
Q 1100 0 847 248 
Q 594 497 594 1153 
L 594 3053 
L 172 3053 
L 172 3500 
L 594 3500 
L 594 4494 
L 1172 4494 
z
" transform="scale(0.015625)"/>
       <path id="DejaVuSans-70" d="M 1159 525 
L 1159 -1331 
L 581 -1331 
L 581 3500 
L 1159 3500 
L 1159 2969 
Q 1341 3281 1617 3432 
Q 1894 3584 2278 3584 
Q 2916 3584 3314 3078 
Q 3713 2572 3713 1747 
Q 3713 922 3314 415 
Q 2916 -91 2278 -91 
Q 1894 -91 1617 61 
Q 1341 213 1159 525 
z
M 3116 1747 
Q 3116 2381 2855 2742 
Q 2594 3103 2138 3103 
Q 1681 3103 1420 2742 
Q 1159 2381 1159 1747 
Q 1159 1113 1420 752 
Q 1681 391 2138 391 
Q 2594 391 2855 752 
Q 3116 1113 3116 1747 
z
" transform="scale(0.015625)"/>
      </defs>
      <use xlink:href="#DejaVuSans-54"/>
      <use xlink:href="#DejaVuSans-69" x="57.958984"/>
      <use xlink:href="#DejaVuSans-6d" x="85.742188"/>
      <use xlink:href="#DejaVuSans-65" x="183.154297"/>
      <use xlink:href="#DejaVuSans-73" x="244.677734"/>
      <use xlink:href="#DejaVuSans-74" x="296.777344"/>
      <use xlink:href="#DejaVuSans-65" x="335.986328"/>
      <use xlink:href="#DejaVuSans-70" x="397.509766"/>
     </g>
    </g>
   </g>
   <g id="matplotlib.axis_2">
    <g id="ytick_1">
     <g id="line2d_7">
      <defs>
       <path id="mb1f94cc85b" d="M 0 0 
L -3.5 0 
" style="stroke: #000000; stroke-width: 0.8"/>
      </defs>
      <g>
       <use xlink:href="#mb1f94cc85b" x="57.6" y="117.155689" style="stroke: #000000; stroke-width: 0.8"/>
      </g>
     </g>
     <g id="text_8">
      <!-- 5 -->
      <g transform="translate(44.2375 120.954908) scale(0.1 -0.1)">
       <defs>
        <path id="DejaVuSans-35" d="M 691 4666 
L 3169 4666 
L 3169 4134 
L 1269 4134 
L 1269 2991 
Q 1406 3038 1543 3061 
Q 1681 3084 1819 3084 
Q 2600 3084 3056 2656 
Q 3513 2228 3513 1497 
Q 3513 744 3044 326 
Q 2575 -91 1722 -91 
Q 1428 -91 1123 -41 
Q 819 9 494 109 
L 494 744 
Q 775 591 1075 516 
Q 1375 441 1709 441 
Q 2250 441 2565 725 
Q 2881 1009 2881 1497 
Q 2881 1984 2565 2268 
Q 2250 2553 1709 2553 
Q 1456 2553 1204 2497 
Q 953 2441 691 2322 
L 691 4666 
z
" transform="scale(0.015625)"/>
       </defs>
       <use xlink:href="#DejaVuSans-35"/>
      </g>
     </g>
    </g>
    <g id="ytick_2">
     <g id="line2d_8">
      <g>
       <use xlink:href="#mb1f94cc85b" x="57.6" y="87.679009" style="stroke: #000000; stroke-width: 0.8"/>
      </g>
     </g>
     <g id="text_9">
      <!-- 10 -->
      <g transform="translate(37.875 91.478228) scale(0.1 -0.1)">
       <use xlink:href="#DejaVuSans-31"/>
       <use xlink:href="#DejaVuSans-30" x="63.623047"/>
      </g>
     </g>
    </g>
    <g id="ytick_3">
     <g id="line2d_9">
      <g>
       <use xlink:href="#mb1f94cc85b" x="57.6" y="58.202329" style="stroke: #000000; stroke-width: 0.8"/>
      </g>
     </g>
     <g id="text_10">
      <!-- 15 -->
      <g transform="translate(37.875 62.001548) scale(0.1 -0.1)">
       <use xlink:href="#DejaVuSans-31"/>
       <use xlink:href="#DejaVuSans-35" x="63.623047"/>
      </g>
     </g>
    </g>
    <g id="text_11">
     <!-- Velocity x [m/s] -->
     <g transform="translate(31.795312 119.42018) rotate(-90) scale(0.1 -0.1)">
      <defs>
       <path id="DejaVuSans-56" d="M 1831 0 
L 50 4666 
L 709 4666 
L 2188 738 
L 3669 4666 
L 4325 4666 
L 2547 0 
L 1831 0 
z
" transform="scale(0.015625)"/>
       <path id="DejaVuSans-6c" d="M 603 4863 
L 1178 4863 
L 1178 0 
L 603 0 
L 603 4863 
z
" transform="scale(0.015625)"/>
       <path id="DejaVuSans-6f" d="M 1959 3097 
Q 1497 3097 1228 2736 
Q 959 2375 959 1747 
Q 959 1119 1226 758 
Q 1494 397 1959 397 
Q 2419 397 2687 759 
Q 2956 1122 2956 1747 
Q 2956 2369 2687 2733 
Q 2419 3097 1959 3097 
z
M 1959 3584 
Q 2709 3584 3137 3096 
Q 3566 2609 3566 1747 
Q 3566 888 3137 398 
Q 2709 -91 1959 -91 
Q 1206 -91 779 398 
Q 353 888 353 1747 
Q 353 2609 779 3096 
Q 1206 3584 1959 3584 
z
" transform="scale(0.015625)"/>
       <path id="DejaVuSans-63" d="M 3122 3366 
L 3122 2828 
Q 2878 2963 2633 3030 
Q 2388 3097 2138 3097 
Q 1578 3097 1268 2742 
Q 959 2388 959 1747 
Q 959 1106 1268 751 
Q 1578 397 2138 397 
Q 2388 397 2633 464 
Q 2878 531 3122 666 
L 3122 134 
Q 2881 22 2623 -34 
Q 2366 -91 2075 -91 
Q 1284 -91 818 406 
Q 353 903 353 1747 
Q 353 2603 823 3093 
Q 1294 3584 2113 3584 
Q 2378 3584 2631 3529 
Q 2884 3475 3122 3366 
z
" transform="scale(0.015625)"/>
       <path id="DejaVuSans-79" d="M 2059 -325 
Q 1816 -950 1584 -1140 
Q 1353 -1331 966 -1331 
L 506 -1331 
L 506 -850 
L 844 -850 
Q 1081 -850 1212 -737 
Q 1344 -625 1503 -206 
L 1606 56 
L 191 3500 
L 800 3500 
L 1894 763 
L 2988 3500 
L 3597 3500 
L 2059 -325 
z
" transform="scale(0.015625)"/>
       <path id="DejaVuSans-20" transform="scale(0.015625)"/>
       <path id="DejaVuSans-78" d="M 3513 3500 
L 2247 1797 
L 3578 0 
L 2900 0 
L 1881 1375 
L 863 0 
L 184 0 
L 1544 1831 
L 300 3500 
L 978 3500 
L 1906 2253 
L 2834 3500 
L 3513 3500 
z
" transform="scale(0.015625)"/>
       <path id="DejaVuSans-5b" d="M 550 4863 
L 1875 4863 
L 1875 4416 
L 1125 4416 
L 1125 -397 
L 1875 -397 
L 1875 -844 
L 550 -844 
L 550 4863 
z
" transform="scale(0.015625)"/>
       <path id="DejaVuSans-2f" d="M 1625 4666 
L 2156 4666 
L 531 -594 
L 0 -594 
L 1625 4666 
z
" transform="scale(0.015625)"/>
       <path id="DejaVuSans-5d" d="M 1947 4863 
L 1947 -844 
L 622 -844 
L 622 -397 
L 1369 -397 
L 1369 4416 
L 622 4416 
L 622 4863 
L 1947 4863 
z
" transform="scale(0.015625)"/>
      </defs>
      <use xlink:href="#DejaVuSans-56"/>
      <use xlink:href="#DejaVuSans-65" x="60.658203"/>
      <use xlink:href="#DejaVuSans-6c" x="122.181641"/>
      <use xlink:href="#DejaVuSans-6f" x="149.964844"/>
      <use xlink:href="#DejaVuSans-63" x="211.146484"/>
      <use xlink:href="#DejaVuSans-69" x="266.126953"/>
      <use xlink:href="#DejaVuSans-74" x="293.910156"/>
      <use xlink:href="#DejaVuSans-79" x="333.119141"/>
      <use xlink:href="#DejaVuSans-20" x="392.298828"/>
      <use xlink:href="#DejaVuSans-78" x="424.085938"/>
      <use xlink:href="#DejaVuSans-20" x="483.265625"/>
      <use xlink:href="#DejaVuSans-5b" x="515.052734"/>
      <use xlink:href="#DejaVuSans-6d" x="554.066406"/>
      <use xlink:href="#DejaVuSans-2f" x="651.478516"/>
      <use xlink:href="#DejaVuSans-73" x="685.169922"/>
      <use xlink:href="#DejaVuSans-5d" x="737.269531"/>
     </g>
    </g>
   </g>
   <g id="line2d_10">
    <path d="M 73.832727 116.182588 
L 77.112066 104.818805 
L 80.391405 94.007944 
L 83.670744 83.080983 
L 86.950083 74.717511 
L 90.229421 71.865128 
L 93.50876 76.841132 
L 96.788099 85.418307 
L 100.067438 90.073827 
L 103.346777 88.127772 
L 106.626116 81.155284 
L 109.905455 73.442313 
L 113.184793 69.451702 
L 116.464132 69.769255 
L 119.743471 72.197747 
L 123.02281 76.064708 
L 126.302149 81.799292 
L 129.581488 87.465253 
L 132.860826 90.05735 
L 136.140165 90.149719 
L 139.419504 89.066532 
L 142.698843 89.270666 
L 145.978182 89.790915 
L 149.257521 90.413319 
L 152.53686 91.030355 
L 155.816198 91.208123 
L 159.095537 87.353818 
L 162.374876 83.605961 
L 165.654215 83.290307 
L 168.933554 83.952449 
L 172.212893 88.776053 
L 175.492231 95.378718 
L 178.77157 102.579574 
L 182.050909 105.887994 
L 185.330248 100.118753 
L 188.609587 90.372405 
L 191.888926 83.547922 
L 195.168264 82.755416 
L 198.447603 88.079375 
L 201.726942 92.45312 
L 205.006281 90.251253 
L 208.28562 83.491028 
L 211.564959 75.729822 
L 214.844298 66.325745 
L 218.123636 59.100116 
L 221.402975 60.675709 
L 224.682314 70.620605 
L 227.961653 87.026421 
L 231.240992 98.278563 
L 234.520331 95.927494 
L 237.799669 87.461185 
L 241.079008 78.127305 
L 244.358347 69.701967 
L 247.637686 60.988306 
L 250.917025 52.592258 
L 254.196364 45.340155 
L 257.475702 45.048965 
L 260.755041 54.804367 
L 264.03438 70.135211 
L 267.313719 83.755495 
L 270.593058 91.043948 
L 273.872397 89.050956 
L 277.151736 81.779259 
L 280.431074 73.793318 
L 283.710413 68.671865 
L 286.989752 68.796875 
L 290.269091 71.362942 
L 293.54843 75.279358 
L 296.827769 80.427146 
L 300.107107 86.516623 
L 303.386446 89.774423 
L 306.665785 90.579871 
L 309.945124 89.105909 
L 313.224463 86.783401 
L 316.503802 87.085316 
L 319.78314 88.907595 
L 323.062479 88.853198 
L 326.341818 85.217344 
L 329.621157 80.407434 
L 332.900496 78.370547 
L 336.179835 81.220332 
L 339.459174 85.60781 
L 342.738512 90.846733 
L 346.017851 97.159582 
L 349.29719 103.539384 
L 352.576529 105.587681 
L 355.855868 98.919285 
L 359.135207 89.421519 
L 362.414545 83.252237 
L 365.693884 83.504787 
L 368.973223 88.86179 
L 372.252562 92.686908 
L 375.531901 89.154222 
L 378.81124 82.035127 
L 382.090579 73.605466 
L 385.369917 63.903592 
L 388.649256 57.934817 
L 391.928595 61.539754 
L 395.207934 73.805264 
L 398.487273 90.597351 
" clip-path="url(#p672fc4196a)" style="fill: none; stroke: #1f77b4; stroke-width: 0.1; stroke-linecap: square"/>
   </g>
   <g id="line2d_11">
    <path d="M 73.832727 114.841979 
L 77.112066 103.759436 
L 80.391405 92.207436 
L 83.670744 82.36407 
L 86.950083 74.258534 
L 90.229421 71.682996 
L 93.50876 76.796992 
L 96.788099 84.965858 
L 100.067438 89.681671 
L 103.346777 87.592265 
L 106.626116 80.303623 
L 109.905455 73.256144 
L 113.184793 69.094707 
L 116.464132 69.459071 
L 119.743471 71.951735 
L 123.02281 75.80337 
L 126.302149 81.874461 
L 129.581488 87.132928 
L 132.860826 89.705617 
L 136.140165 89.677603 
L 139.419504 88.677709 
L 142.698843 89.014253 
L 145.978182 89.309253 
L 149.257521 89.914964 
L 152.53686 90.603645 
L 155.816198 90.603396 
L 159.095537 86.915143 
L 162.374876 83.400395 
L 165.654215 82.994397 
L 168.933554 83.637857 
L 172.212893 88.695183 
L 175.492231 94.987838 
L 178.77157 102.534973 
L 182.050909 105.339382 
L 185.330248 98.932251 
L 188.609587 90.005791 
L 191.888926 83.104205 
L 195.168264 82.558942 
L 198.447603 87.823007 
L 201.726942 91.929982 
L 205.006281 89.359759 
L 208.28562 82.887076 
L 211.564959 74.557705 
L 214.844298 65.397942 
L 218.123636 58.686713 
L 221.402975 60.371069 
L 224.682314 71.15786 
L 227.961653 86.730141 
L 231.240992 97.83854 
L 234.520331 95.157018 
L 237.799669 86.19873 
L 241.079008 77.33353 
L 244.358347 68.492817 
L 247.637686 59.915264 
L 250.917025 51.405191 
L 254.196364 45.173614 
L 257.475702 45.029647 
L 260.755041 54.715823 
L 264.03438 70.307741 
L 267.313719 83.235028 
L 270.593058 90.696584 
L 273.872397 88.493354 
L 277.151736 80.822968 
L 280.431074 73.506595 
L 283.710413 68.361703 
L 286.989752 68.50864 
L 290.269091 71.126842 
L 293.54843 74.858663 
L 296.827769 80.42628 
L 300.107107 86.202296 
L 303.386446 89.457458 
L 306.665785 90.099052 
L 309.945124 88.565787 
L 313.224463 86.558951 
L 316.503802 86.808911 
L 319.78314 88.498566 
L 323.062479 88.308117 
L 326.341818 84.800973 
L 329.621157 80.025584 
L 332.900496 78.174646 
L 336.179835 81.043822 
L 339.459174 85.280782 
L 342.738512 90.70656 
L 346.017851 96.898204 
L 349.29719 103.287424 
L 352.576529 105.009687 
L 355.855868 97.531977 
L 359.135207 88.955397 
L 362.414545 82.933333 
L 365.693884 83.243932 
L 368.973223 88.992625 
L 372.252562 92.151526 
L 375.531901 88.669799 
L 378.81124 81.351244 
L 382.090579 72.132537 
L 385.369917 63.082808 
L 388.649256 57.587346 
L 391.928595 61.41598 
L 395.207934 74.014804 
L 398.487273 89.945431 
" clip-path="url(#p672fc4196a)" style="fill: none; stroke-dasharray: 0.37,0.16; stroke-dashoffset: 0; stroke: #ff7f0e; stroke-width: 0.1"/>
   </g>
   <g id="line2d_12">
    <path d="M 73.832727 115.935124 
L 77.112066 105.110296 
L 80.391405 93.407559 
L 83.670744 83.416507 
L 86.950083 74.672327 
L 90.229421 71.904308 
L 93.50876 76.961608 
L 96.788099 85.160399 
L 100.067438 90.05941 
L 103.346777 88.189204 
L 106.626116 81.09141 
L 109.905455 73.628841 
L 113.184793 69.392289 
L 116.464132 69.748951 
L 119.743471 72.237785 
L 123.02281 76.020675 
L 126.302149 82.004989 
L 129.581488 87.427859 
L 132.860826 90.087729 
L 136.140165 90.164712 
L 139.419504 89.05871 
L 142.698843 89.287128 
L 145.978182 89.74533 
L 149.257521 90.373945 
L 152.53686 91.020297 
L 155.816198 91.13695 
L 159.095537 87.322761 
L 162.374876 83.657028 
L 165.654215 83.31208 
L 168.933554 84.090123 
L 172.212893 88.904298 
L 175.492231 95.219823 
L 178.77157 102.792155 
L 182.050909 105.903335 
L 185.330248 100.065375 
L 188.609587 90.616927 
L 191.888926 83.434159 
L 195.168264 82.770682 
L 198.447603 88.147933 
L 201.726942 92.360837 
L 205.006281 89.834831 
L 208.28562 83.580914 
L 211.564959 75.611145 
L 214.844298 66.43889 
L 218.123636 59.02924 
L 221.402975 60.525772 
L 224.682314 71.152084 
L 227.961653 86.791314 
L 231.240992 98.207946 
L 234.520331 95.957539 
L 237.799669 87.309287 
L 241.079008 78.386411 
L 244.358347 69.583641 
L 247.637686 61.075033 
L 250.917025 52.30783 
L 254.196364 45.523591 
L 257.475702 45.100075 
L 260.755041 54.712779 
L 264.03438 70.282474 
L 267.313719 83.347359 
L 270.593058 91.026018 
L 273.872397 89.143023 
L 277.151736 81.69664 
L 280.431074 74.026461 
L 283.710413 68.653593 
L 286.989752 68.786501 
L 290.269091 71.407031 
L 293.54843 75.154331 
L 296.827769 80.586818 
L 300.107107 86.463035 
L 303.386446 89.826718 
L 306.665785 90.572418 
L 309.945124 89.021188 
L 313.224463 86.789974 
L 316.503802 87.140726 
L 319.78314 88.819943 
L 323.062479 88.764178 
L 326.341818 85.358354 
L 329.621157 80.397664 
L 332.900496 78.334928 
L 336.179835 81.313392 
L 339.459174 85.489395 
L 342.738512 90.920783 
L 346.017851 97.136632 
L 349.29719 103.592147 
L 352.576529 105.617503 
L 355.855868 98.654436 
L 359.135207 89.489275 
L 362.414545 83.236961 
L 365.693884 83.441492 
L 368.973223 89.27699 
L 372.252562 92.612615 
L 375.531901 89.0891 
L 378.81124 82.244937 
L 382.090579 73.310629 
L 385.369917 64.047671 
L 388.649256 57.883427 
L 391.928595 61.525877 
L 395.207934 74.098759 
L 398.487273 90.04473 
" clip-path="url(#p672fc4196a)" style="fill: none; stroke-dasharray: 0.37,0.16; stroke-dashoffset: 0; stroke: #2ca02c; stroke-width: 0.1"/>
   </g>
   <g id="line2d_13">
    <path d="M 73.832727 116.051424 
L 77.112066 105.090849 
L 80.391405 93.487327 
L 83.670744 83.457079 
L 86.950083 74.668761 
L 90.229421 71.880429 
L 93.50876 76.961016 
L 96.788099 85.174808 
L 100.067438 90.081144 
L 103.346777 88.218859 
L 106.626116 81.103973 
L 109.905455 73.619926 
L 113.184793 69.402289 
L 116.464132 69.743295 
L 119.743471 72.219944 
L 123.02281 75.968118 
L 126.302149 82.029434 
L 129.581488 87.437228 
L 132.860826 90.090874 
L 136.140165 90.17054 
L 139.419504 89.067047 
L 142.698843 89.289536 
L 145.978182 89.801297 
L 149.257521 90.378426 
L 152.53686 91.022873 
L 155.816198 91.206882 
L 159.095537 87.335565 
L 162.374876 83.638088 
L 165.654215 83.31667 
L 168.933554 84.078665 
L 172.212893 88.910655 
L 175.492231 95.239501 
L 178.77157 102.821753 
L 182.050909 105.924649 
L 185.330248 100.059442 
L 188.609587 90.656681 
L 191.888926 83.428538 
L 195.168264 82.757107 
L 198.447603 88.153529 
L 201.726942 92.393516 
L 205.006281 89.728889 
L 208.28562 83.607053 
L 211.564959 75.640302 
L 214.844298 66.527321 
L 218.123636 59.008464 
L 221.402975 60.489597 
L 224.682314 71.117692 
L 227.961653 86.831581 
L 231.240992 98.232694 
L 234.520331 96.0158 
L 237.799669 87.393474 
L 241.079008 78.415009 
L 244.358347 69.65082 
L 247.637686 61.092219 
L 250.917025 52.281482 
L 254.196364 45.498964 
L 257.475702 45.051377 
L 260.755041 54.665386 
L 264.03438 70.292037 
L 267.313719 83.362297 
L 270.593058 91.043892 
L 273.872397 89.181788 
L 277.151736 81.728563 
L 280.431074 74.027159 
L 283.710413 68.633984 
L 286.989752 68.779324 
L 290.269091 71.386352 
L 293.54843 75.150463 
L 296.827769 80.597191 
L 300.107107 86.477825 
L 303.386446 89.828159 
L 306.665785 90.573082 
L 309.945124 89.036046 
L 313.224463 86.820522 
L 316.503802 87.156705 
L 319.78314 88.826769 
L 323.062479 88.774776 
L 326.341818 85.381848 
L 329.621157 80.411598 
L 332.900496 78.306007 
L 336.179835 81.319078 
L 339.459174 85.472313 
L 342.738512 90.946073 
L 346.017851 97.150968 
L 349.29719 103.620238 
L 352.576529 105.635451 
L 355.855868 98.672351 
L 359.135207 89.486989 
L 362.414545 83.229712 
L 365.693884 83.429959 
L 368.973223 89.301538 
L 372.252562 92.649694 
L 375.531901 89.068266 
L 378.81124 82.286873 
L 382.090579 73.33857 
L 385.369917 63.972167 
L 388.649256 57.860745 
L 391.928595 61.491893 
L 395.207934 74.064126 
L 398.487273 90.058868 
" clip-path="url(#p672fc4196a)" style="fill: none; stroke-dasharray: 0.1,0.165; stroke-dashoffset: 0; stroke: #d62728; stroke-width: 0.1"/>
   </g>
   <g id="patch_3">
    <path d="M 57.6 119.740235 
L 57.6 41.472 
" style="fill: none; stroke: #000000; stroke-width: 0.8; stroke-linejoin: miter; stroke-linecap: square"/>
   </g>
   <g id="patch_4">
    <path d="M 414.72 119.740235 
L 414.72 41.472 
" style="fill: none; stroke: #000000; stroke-width: 0.8; stroke-linejoin: miter; stroke-linecap: square"/>
   </g>
   <g id="patch_5">
    <path d="M 57.6 119.740235 
L 414.72 119.740235 
" style="fill: none; stroke: #000000; stroke-width: 0.8; stroke-linejoin: miter; stroke-linecap: square"/>
   </g>
   <g id="patch_6">
    <path d="M 57.6 41.472 
L 414.72 41.472 
" style="fill: none; stroke: #000000; stroke-width: 0.8; stroke-linejoin: miter; stroke-linecap: square"/>
   </g>
   <g id="text_12">
    <!-- vx -->
    <g transform="translate(229.0575 35.472) scale(0.12 -0.12)">
     <defs>
      <path id="DejaVuSans-76" d="M 191 3500 
L 800 3500 
L 1894 563 
L 2988 3500 
L 3597 3500 
L 2284 0 
L 1503 0 
L 191 3500 
z
" transform="scale(0.015625)"/>
     </defs>
     <use xlink:href="#DejaVuSans-76"/>
     <use xlink:href="#DejaVuSans-78" x="59.179688"/>
    </g>
   </g>
   <g id="legend_1">
    <g id="patch_7">
     <path d="M 390.890938 54.8145 
L 413.32 54.8145 
Q 413.72 54.8145 413.72 54.4145 
L 413.72 42.872 
Q 413.72 42.472 413.32 42.472 
L 390.890938 42.472 
Q 390.490938 42.472 390.490938 42.872 
L 390.490938 54.4145 
Q 390.490938 54.8145 390.890938 54.8145 
z
" style="fill: #ffffff; opacity: 0.8; stroke: #cccccc; stroke-linejoin: miter"/>
    </g>
    <g id="line2d_14">
     <path d="M 391.290938 44.091688 
L 393.290938 44.091688 
L 395.290938 44.091688 
" style="fill: none; stroke: #1f77b4; stroke-width: 0.1; stroke-linecap: square"/>
    </g>
    <g id="text_13">
     <!-- True -->
     <g transform="translate(396.890938 44.791688) scale(0.02 -0.02)">
      <defs>
       <path id="DejaVuSans-72" d="M 2631 2963 
Q 2534 3019 2420 3045 
Q 2306 3072 2169 3072 
Q 1681 3072 1420 2755 
Q 1159 2438 1159 1844 
L 1159 0 
L 581 0 
L 581 3500 
L 1159 3500 
L 1159 2956 
Q 1341 3275 1631 3429 
Q 1922 3584 2338 3584 
Q 2397 3584 2469 3576 
Q 2541 3569 2628 3553 
L 2631 2963 
z
" transform="scale(0.015625)"/>
       <path id="DejaVuSans-75" d="M 544 1381 
L 544 3500 
L 1119 3500 
L 1119 1403 
Q 1119 906 1312 657 
Q 1506 409 1894 409 
Q 2359 409 2629 706 
Q 2900 1003 2900 1516 
L 2900 3500 
L 3475 3500 
L 3475 0 
L 2900 0 
L 2900 538 
Q 2691 219 2414 64 
Q 2138 -91 1772 -91 
Q 1169 -91 856 284 
Q 544 659 544 1381 
z
M 1991 3584 
L 1991 3584 
z
" transform="scale(0.015625)"/>
      </defs>
      <use xlink:href="#DejaVuSans-54"/>
      <use xlink:href="#DejaVuSans-72" x="46.333984"/>
      <use xlink:href="#DejaVuSans-75" x="87.447266"/>
      <use xlink:href="#DejaVuSans-65" x="150.826172"/>
     </g>
    </g>
    <g id="line2d_15">
     <path d="M 391.290938 47.027313 
L 393.290938 47.027313 
L 395.290938 47.027313 
" style="fill: none; stroke-dasharray: 0.37,0.16; stroke-dashoffset: 0; stroke: #ff7f0e; stroke-width: 0.1"/>
    </g>
    <g id="text_14">
     <!-- Model Predicted -->
     <g transform="translate(396.890938 47.727313) scale(0.02 -0.02)">
      <defs>
       <path id="DejaVuSans-4d" d="M 628 4666 
L 1569 4666 
L 2759 1491 
L 3956 4666 
L 4897 4666 
L 4897 0 
L 4281 0 
L 4281 4097 
L 3078 897 
L 2444 897 
L 1241 4097 
L 1241 0 
L 628 0 
L 628 4666 
z
" transform="scale(0.015625)"/>
       <path id="DejaVuSans-64" d="M 2906 2969 
L 2906 4863 
L 3481 4863 
L 3481 0 
L 2906 0 
L 2906 525 
Q 2725 213 2448 61 
Q 2172 -91 1784 -91 
Q 1150 -91 751 415 
Q 353 922 353 1747 
Q 353 2572 751 3078 
Q 1150 3584 1784 3584 
Q 2172 3584 2448 3432 
Q 2725 3281 2906 2969 
z
M 947 1747 
Q 947 1113 1208 752 
Q 1469 391 1925 391 
Q 2381 391 2643 752 
Q 2906 1113 2906 1747 
Q 2906 2381 2643 2742 
Q 2381 3103 1925 3103 
Q 1469 3103 1208 2742 
Q 947 2381 947 1747 
z
" transform="scale(0.015625)"/>
       <path id="DejaVuSans-50" d="M 1259 4147 
L 1259 2394 
L 2053 2394 
Q 2494 2394 2734 2622 
Q 2975 2850 2975 3272 
Q 2975 3691 2734 3919 
Q 2494 4147 2053 4147 
L 1259 4147 
z
M 628 4666 
L 2053 4666 
Q 2838 4666 3239 4311 
Q 3641 3956 3641 3272 
Q 3641 2581 3239 2228 
Q 2838 1875 2053 1875 
L 1259 1875 
L 1259 0 
L 628 0 
L 628 4666 
z
" transform="scale(0.015625)"/>
      </defs>
      <use xlink:href="#DejaVuSans-4d"/>
      <use xlink:href="#DejaVuSans-6f" x="86.279297"/>
      <use xlink:href="#DejaVuSans-64" x="147.460938"/>
      <use xlink:href="#DejaVuSans-65" x="210.9375"/>
      <use xlink:href="#DejaVuSans-6c" x="272.460938"/>
      <use xlink:href="#DejaVuSans-20" x="300.244141"/>
      <use xlink:href="#DejaVuSans-50" x="332.03125"/>
      <use xlink:href="#DejaVuSans-72" x="390.583984"/>
      <use xlink:href="#DejaVuSans-65" x="429.447266"/>
      <use xlink:href="#DejaVuSans-64" x="490.970703"/>
      <use xlink:href="#DejaVuSans-69" x="554.447266"/>
      <use xlink:href="#DejaVuSans-63" x="582.230469"/>
      <use xlink:href="#DejaVuSans-74" x="637.210938"/>
      <use xlink:href="#DejaVuSans-65" x="676.419922"/>
      <use xlink:href="#DejaVuSans-64" x="737.943359"/>
     </g>
    </g>
    <g id="line2d_16">
     <path d="M 391.290938 49.962937 
L 393.290938 49.962937 
L 395.290938 49.962937 
" style="fill: none; stroke-dasharray: 0.37,0.16; stroke-dashoffset: 0; stroke: #2ca02c; stroke-width: 0.1"/>
    </g>
    <g id="text_15">
     <!-- NN Raw -->
     <g transform="translate(396.890938 50.662937) scale(0.02 -0.02)">
      <defs>
       <path id="DejaVuSans-4e" d="M 628 4666 
L 1478 4666 
L 3547 763 
L 3547 4666 
L 4159 4666 
L 4159 0 
L 3309 0 
L 1241 3903 
L 1241 0 
L 628 0 
L 628 4666 
z
" transform="scale(0.015625)"/>
       <path id="DejaVuSans-52" d="M 2841 2188 
Q 3044 2119 3236 1894 
Q 3428 1669 3622 1275 
L 4263 0 
L 3584 0 
L 2988 1197 
Q 2756 1666 2539 1819 
Q 2322 1972 1947 1972 
L 1259 1972 
L 1259 0 
L 628 0 
L 628 4666 
L 2053 4666 
Q 2853 4666 3247 4331 
Q 3641 3997 3641 3322 
Q 3641 2881 3436 2590 
Q 3231 2300 2841 2188 
z
M 1259 4147 
L 1259 2491 
L 2053 2491 
Q 2509 2491 2742 2702 
Q 2975 2913 2975 3322 
Q 2975 3731 2742 3939 
Q 2509 4147 2053 4147 
L 1259 4147 
z
" transform="scale(0.015625)"/>
       <path id="DejaVuSans-61" d="M 2194 1759 
Q 1497 1759 1228 1600 
Q 959 1441 959 1056 
Q 959 750 1161 570 
Q 1363 391 1709 391 
Q 2188 391 2477 730 
Q 2766 1069 2766 1631 
L 2766 1759 
L 2194 1759 
z
M 3341 1997 
L 3341 0 
L 2766 0 
L 2766 531 
Q 2569 213 2275 61 
Q 1981 -91 1556 -91 
Q 1019 -91 701 211 
Q 384 513 384 1019 
Q 384 1609 779 1909 
Q 1175 2209 1959 2209 
L 2766 2209 
L 2766 2266 
Q 2766 2663 2505 2880 
Q 2244 3097 1772 3097 
Q 1472 3097 1187 3025 
Q 903 2953 641 2809 
L 641 3341 
Q 956 3463 1253 3523 
Q 1550 3584 1831 3584 
Q 2591 3584 2966 3190 
Q 3341 2797 3341 1997 
z
" transform="scale(0.015625)"/>
       <path id="DejaVuSans-77" d="M 269 3500 
L 844 3500 
L 1563 769 
L 2278 3500 
L 2956 3500 
L 3675 769 
L 4391 3500 
L 4966 3500 
L 4050 0 
L 3372 0 
L 2619 2869 
L 1863 0 
L 1184 0 
L 269 3500 
z
" transform="scale(0.015625)"/>
      </defs>
      <use xlink:href="#DejaVuSans-4e"/>
      <use xlink:href="#DejaVuSans-4e" x="74.804688"/>
      <use xlink:href="#DejaVuSans-20" x="149.609375"/>
      <use xlink:href="#DejaVuSans-52" x="181.396484"/>
      <use xlink:href="#DejaVuSans-61" x="248.628906"/>
      <use xlink:href="#DejaVuSans-77" x="309.908203"/>
     </g>
    </g>
    <g id="line2d_17">
     <path d="M 391.290938 52.898563 
L 393.290938 52.898563 
L 395.290938 52.898563 
" style="fill: none; stroke-dasharray: 0.1,0.165; stroke-dashoffset: 0; stroke: #d62728; stroke-width: 0.1"/>
    </g>
    <g id="text_16">
     <!-- NN1 -->
     <g transform="translate(396.890938 53.598563) scale(0.02 -0.02)">
      <use xlink:href="#DejaVuSans-4e"/>
      <use xlink:href="#DejaVuSans-4e" x="74.804688"/>
      <use xlink:href="#DejaVuSans-31" x="149.609375"/>
     </g>
    </g>
   </g>
  </g>
  <g id="axes_2">
   <g id="patch_8">
    <path d="M 57.6 213.662118 
L 414.72 213.662118 
L 414.72 135.393882 
L 57.6 135.393882 
z
" style="fill: #ffffff"/>
   </g>
   <g id="matplotlib.axis_3">
    <g id="xtick_7">
     <g id="line2d_18">
      <g>
       <use xlink:href="#m601f9be8af" x="73.832727" y="213.662118" style="stroke: #000000; stroke-width: 0.8"/>
      </g>
     </g>
     <g id="text_17">
      <!-- 0 -->
      <g transform="translate(70.651477 228.260555) scale(0.1 -0.1)">
       <use xlink:href="#DejaVuSans-30"/>
      </g>
     </g>
    </g>
    <g id="xtick_8">
     <g id="line2d_19">
      <g>
       <use xlink:href="#m601f9be8af" x="139.419504" y="213.662118" style="stroke: #000000; stroke-width: 0.8"/>
      </g>
     </g>
     <g id="text_18">
      <!-- 20 -->
      <g transform="translate(133.057004 228.260555) scale(0.1 -0.1)">
       <use xlink:href="#DejaVuSans-32"/>
       <use xlink:href="#DejaVuSans-30" x="63.623047"/>
      </g>
     </g>
    </g>
    <g id="xtick_9">
     <g id="line2d_20">
      <g>
       <use xlink:href="#m601f9be8af" x="205.006281" y="213.662118" style="stroke: #000000; stroke-width: 0.8"/>
      </g>
     </g>
     <g id="text_19">
      <!-- 40 -->
      <g transform="translate(198.643781 228.260555) scale(0.1 -0.1)">
       <use xlink:href="#DejaVuSans-34"/>
       <use xlink:href="#DejaVuSans-30" x="63.623047"/>
      </g>
     </g>
    </g>
    <g id="xtick_10">
     <g id="line2d_21">
      <g>
       <use xlink:href="#m601f9be8af" x="270.593058" y="213.662118" style="stroke: #000000; stroke-width: 0.8"/>
      </g>
     </g>
     <g id="text_20">
      <!-- 60 -->
      <g transform="translate(264.230558 228.260555) scale(0.1 -0.1)">
       <use xlink:href="#DejaVuSans-36"/>
       <use xlink:href="#DejaVuSans-30" x="63.623047"/>
      </g>
     </g>
    </g>
    <g id="xtick_11">
     <g id="line2d_22">
      <g>
       <use xlink:href="#m601f9be8af" x="336.179835" y="213.662118" style="stroke: #000000; stroke-width: 0.8"/>
      </g>
     </g>
     <g id="text_21">
      <!-- 80 -->
      <g transform="translate(329.817335 228.260555) scale(0.1 -0.1)">
       <use xlink:href="#DejaVuSans-38"/>
       <use xlink:href="#DejaVuSans-30" x="63.623047"/>
      </g>
     </g>
    </g>
    <g id="xtick_12">
     <g id="line2d_23">
      <g>
       <use xlink:href="#m601f9be8af" x="401.766612" y="213.662118" style="stroke: #000000; stroke-width: 0.8"/>
      </g>
     </g>
     <g id="text_22">
      <!-- 100 -->
      <g transform="translate(392.222862 228.260555) scale(0.1 -0.1)">
       <use xlink:href="#DejaVuSans-31"/>
       <use xlink:href="#DejaVuSans-30" x="63.623047"/>
       <use xlink:href="#DejaVuSans-30" x="127.246094"/>
      </g>
     </g>
    </g>
    <g id="text_23">
     <!-- Timestep -->
     <g transform="translate(213.110781 241.93868) scale(0.1 -0.1)">
      <use xlink:href="#DejaVuSans-54"/>
      <use xlink:href="#DejaVuSans-69" x="57.958984"/>
      <use xlink:href="#DejaVuSans-6d" x="85.742188"/>
      <use xlink:href="#DejaVuSans-65" x="183.154297"/>
      <use xlink:href="#DejaVuSans-73" x="244.677734"/>
      <use xlink:href="#DejaVuSans-74" x="296.777344"/>
      <use xlink:href="#DejaVuSans-65" x="335.986328"/>
      <use xlink:href="#DejaVuSans-70" x="397.509766"/>
     </g>
    </g>
   </g>
   <g id="matplotlib.axis_4">
    <g id="ytick_4">
     <g id="line2d_24">
      <g>
       <use xlink:href="#mb1f94cc85b" x="57.6" y="189.387862" style="stroke: #000000; stroke-width: 0.8"/>
      </g>
     </g>
     <g id="text_24">
      <!-- −0.5 -->
      <g transform="translate(26.317187 193.187081) scale(0.1 -0.1)">
       <defs>
        <path id="DejaVuSans-2212" d="M 678 2272 
L 4684 2272 
L 4684 1741 
L 678 1741 
L 678 2272 
z
" transform="scale(0.015625)"/>
        <path id="DejaVuSans-2e" d="M 684 794 
L 1344 794 
L 1344 0 
L 684 0 
L 684 794 
z
" transform="scale(0.015625)"/>
       </defs>
       <use xlink:href="#DejaVuSans-2212"/>
       <use xlink:href="#DejaVuSans-30" x="83.789062"/>
       <use xlink:href="#DejaVuSans-2e" x="147.412109"/>
       <use xlink:href="#DejaVuSans-35" x="179.199219"/>
      </g>
     </g>
    </g>
    <g id="ytick_5">
     <g id="line2d_25">
      <g>
       <use xlink:href="#mb1f94cc85b" x="57.6" y="164.467625" style="stroke: #000000; stroke-width: 0.8"/>
      </g>
     </g>
     <g id="text_25">
      <!-- 0.0 -->
      <g transform="translate(34.696875 168.266843) scale(0.1 -0.1)">
       <use xlink:href="#DejaVuSans-30"/>
       <use xlink:href="#DejaVuSans-2e" x="63.623047"/>
       <use xlink:href="#DejaVuSans-30" x="95.410156"/>
      </g>
     </g>
    </g>
    <g id="ytick_6">
     <g id="line2d_26">
      <g>
       <use xlink:href="#mb1f94cc85b" x="57.6" y="139.547387" style="stroke: #000000; stroke-width: 0.8"/>
      </g>
     </g>
     <g id="text_26">
      <!-- 0.5 -->
      <g transform="translate(34.696875 143.346606) scale(0.1 -0.1)">
       <use xlink:href="#DejaVuSans-30"/>
       <use xlink:href="#DejaVuSans-2e" x="63.623047"/>
       <use xlink:href="#DejaVuSans-35" x="95.410156"/>
      </g>
     </g>
    </g>
    <g id="text_27">
     <!-- Velocity y [m/s] -->
     <g transform="translate(20.2375 213.342062) rotate(-90) scale(0.1 -0.1)">
      <use xlink:href="#DejaVuSans-56"/>
      <use xlink:href="#DejaVuSans-65" x="60.658203"/>
      <use xlink:href="#DejaVuSans-6c" x="122.181641"/>
      <use xlink:href="#DejaVuSans-6f" x="149.964844"/>
      <use xlink:href="#DejaVuSans-63" x="211.146484"/>
      <use xlink:href="#DejaVuSans-69" x="266.126953"/>
      <use xlink:href="#DejaVuSans-74" x="293.910156"/>
      <use xlink:href="#DejaVuSans-79" x="333.119141"/>
      <use xlink:href="#DejaVuSans-20" x="392.298828"/>
      <use xlink:href="#DejaVuSans-79" x="424.085938"/>
      <use xlink:href="#DejaVuSans-20" x="483.265625"/>
      <use xlink:href="#DejaVuSans-5b" x="515.052734"/>
      <use xlink:href="#DejaVuSans-6d" x="554.066406"/>
      <use xlink:href="#DejaVuSans-2f" x="651.478516"/>
      <use xlink:href="#DejaVuSans-73" x="685.169922"/>
      <use xlink:href="#DejaVuSans-5d" x="737.269531"/>
     </g>
    </g>
   </g>
   <g id="line2d_27">
    <path d="M 73.832727 159.985517 
L 77.112066 171.933957 
L 80.391405 165.435502 
L 83.670744 164.498403 
L 86.950083 167.821776 
L 90.229421 169.662469 
L 93.50876 177.358822 
L 96.788099 183.132214 
L 100.067438 189.074552 
L 103.346777 188.585854 
L 106.626116 180.593843 
L 109.905455 169.79037 
L 113.184793 176.149207 
L 116.464132 175.571517 
L 119.743471 176.031015 
L 123.02281 171.062767 
L 126.302149 148.421711 
L 129.581488 142.834481 
L 132.860826 139.415781 
L 136.140165 139.049239 
L 139.419504 140.708622 
L 142.698843 176.18495 
L 145.978182 187.164481 
L 149.257521 139.076903 
L 152.53686 139.435928 
L 155.816198 143.824707 
L 159.095537 185.390763 
L 162.374876 169.214881 
L 165.654215 145.439258 
L 168.933554 152.630757 
L 172.212893 185.154214 
L 175.492231 191.838133 
L 178.77157 200.178016 
L 182.050909 210.064682 
L 185.330248 203.235074 
L 188.609587 161.376144 
L 191.888926 159.50562 
L 195.168264 161.694635 
L 198.447603 184.140072 
L 201.726942 191.624391 
L 205.006281 182.864026 
L 208.28562 143.828372 
L 211.564959 148.038291 
L 214.844298 165.143855 
L 218.123636 170.418242 
L 221.402975 169.532011 
L 224.682314 159.543888 
L 227.961653 181.1683 
L 231.240992 196.331326 
L 234.520331 194.00692 
L 237.799669 147.241089 
L 241.079008 148.9914 
L 244.358347 173.608339 
L 247.637686 173.31113 
L 250.917025 164.629324 
L 254.196364 164.863797 
L 257.475702 165.584844 
L 260.755041 167.521125 
L 264.03438 173.067052 
L 267.313719 180.263984 
L 270.593058 189.381828 
L 273.872397 189.831005 
L 277.151736 184.959257 
L 280.431074 170.965295 
L 283.710413 172.42737 
L 286.989752 175.130957 
L 290.269091 175.406014 
L 293.54843 176.691931 
L 296.827769 150.540791 
L 300.107107 143.869262 
L 303.386446 140.39717 
L 306.665785 138.951529 
L 309.945124 139.880618 
L 313.224463 168.519248 
L 316.503802 186.240154 
L 319.78314 140.268076 
L 323.062479 140.201454 
L 326.341818 143.880998 
L 329.621157 181.781528 
L 332.900496 162.62682 
L 336.179835 150.187566 
L 339.459174 158.889195 
L 342.738512 188.529135 
L 346.017851 192.851141 
L 349.29719 202.740058 
L 352.576529 209.776393 
L 355.855868 200.858902 
L 359.135207 157.552306 
L 362.414545 160.295587 
L 365.693884 165.669115 
L 368.973223 187.763002 
L 372.252562 192.039549 
L 375.531901 168.331837 
L 378.81124 144.363018 
L 382.090579 149.426947 
L 385.369917 166.92783 
L 388.649256 170.714664 
L 391.928595 169.607927 
L 395.207934 161.089529 
L 398.487273 183.697885 
" clip-path="url(#pca5e662198)" style="fill: none; stroke: #1f77b4; stroke-width: 0.1; stroke-linecap: square"/>
   </g>
   <g id="line2d_28">
    <path d="M 73.832727 157.100686 
L 77.112066 175.258647 
L 80.391405 163.940855 
L 83.670744 164.890982 
L 86.950083 165.222221 
L 90.229421 168.456028 
L 93.50876 171.38729 
L 96.788099 176.195721 
L 100.067438 180.40335 
L 103.346777 179.748894 
L 106.626116 162.583304 
L 109.905455 160.421891 
L 113.184793 165.96316 
L 116.464132 166.402376 
L 119.743471 165.933123 
L 123.02281 148.03917 
L 126.302149 150.942247 
L 129.581488 150.459931 
L 132.860826 149.142258 
L 136.140165 151.934476 
L 139.419504 152.95078 
L 142.698843 177.34552 
L 145.978182 168.997544 
L 149.257521 152.233142 
L 152.53686 151.971209 
L 155.816198 167.024579 
L 159.095537 180.424898 
L 162.374876 155.047191 
L 165.654215 154.269931 
L 168.933554 176.165317 
L 172.212893 181.310308 
L 175.492231 184.357663 
L 178.77157 191.844295 
L 182.050909 197.96026 
L 185.330248 187.580331 
L 188.609587 154.120154 
L 191.888926 162.684879 
L 195.168264 167.701129 
L 198.447603 171.478204 
L 201.726942 179.750312 
L 205.006281 159.51369 
L 208.28562 151.163794 
L 211.564959 156.211349 
L 214.844298 163.644169 
L 218.123636 165.703911 
L 221.402975 160.167047 
L 224.682314 149.910161 
L 227.961653 173.74374 
L 231.240992 186.065293 
L 234.520331 172.916259 
L 237.799669 152.740562 
L 241.079008 157.717862 
L 244.358347 173.870692 
L 247.637686 166.113558 
L 250.917025 166.728092 
L 254.196364 162.193698 
L 257.475702 165.753919 
L 260.755041 167.644279 
L 264.03438 168.925157 
L 267.313719 175.392817 
L 270.593058 181.82856 
L 273.872397 180.139423 
L 277.151736 175.399816 
L 280.431074 162.98469 
L 283.710413 168.864253 
L 286.989752 166.010871 
L 290.269091 165.80092 
L 293.54843 162.630024 
L 296.827769 156.573158 
L 300.107107 151.081453 
L 303.386446 148.718043 
L 306.665785 151.70205 
L 309.945124 152.012289 
L 313.224463 176.971617 
L 316.503802 178.892388 
L 319.78314 147.522585 
L 323.062479 151.843829 
L 326.341818 158.567441 
L 329.621157 176.978025 
L 332.900496 151.098964 
L 336.179835 148.696337 
L 339.459174 168.971259 
L 342.738512 182.130604 
L 346.017851 185.319833 
L 349.29719 193.252517 
L 352.576529 197.008085 
L 355.855868 184.149756 
L 359.135207 155.53279 
L 362.414545 161.452776 
L 365.693884 169.197995 
L 368.973223 177.13651 
L 372.252562 180.034026 
L 375.531901 155.006575 
L 378.81124 151.797829 
L 382.090579 158.398446 
L 385.369917 169.950867 
L 388.649256 163.432213 
L 391.928595 160.554128 
L 395.207934 161.305084 
L 398.487273 176.22968 
" clip-path="url(#pca5e662198)" style="fill: none; stroke-dasharray: 0.37,0.16; stroke-dashoffset: 0; stroke: #ff7f0e; stroke-width: 0.1"/>
   </g>
   <g id="line2d_29">
    <path d="M 73.832727 159.66616 
L 77.112066 171.079531 
L 80.391405 165.209891 
L 83.670744 164.452377 
L 86.950083 168.324873 
L 90.229421 170.055585 
L 93.50876 178.088013 
L 96.788099 182.961845 
L 100.067438 189.180219 
L 103.346777 188.833333 
L 106.626116 180.796156 
L 109.905455 169.721618 
L 113.184793 175.616329 
L 116.464132 175.563267 
L 119.743471 175.954739 
L 123.02281 171.118709 
L 126.302149 147.399503 
L 129.581488 143.020229 
L 132.860826 139.742258 
L 136.140165 139.383422 
L 139.419504 141.107802 
L 142.698843 178.888051 
L 145.978182 186.33339 
L 149.257521 139.094821 
L 152.53686 139.749076 
L 155.816198 142.468595 
L 159.095537 185.888282 
L 162.374876 169.541448 
L 165.654215 145.578994 
L 168.933554 152.417334 
L 172.212893 186.308822 
L 175.492231 191.736012 
L 178.77157 200.674973 
L 182.050909 209.762339 
L 185.330248 203.245586 
L 188.609587 161.942286 
L 191.888926 159.219128 
L 195.168264 162.208587 
L 198.447603 183.78157 
L 201.726942 191.031317 
L 205.006281 180.994347 
L 208.28562 143.623236 
L 211.564959 148.230422 
L 214.844298 165.496246 
L 218.123636 170.278472 
L 221.402975 169.481664 
L 224.682314 160.18735 
L 227.961653 180.555917 
L 231.240992 195.914617 
L 234.520331 194.611726 
L 237.799669 147.041952 
L 241.079008 148.031213 
L 244.358347 173.710057 
L 247.637686 173.615814 
L 250.917025 164.318029 
L 254.196364 164.997514 
L 257.475702 165.128436 
L 260.755041 166.984244 
L 264.03438 172.633358 
L 267.313719 180.466819 
L 270.593058 189.680049 
L 273.872397 190.01032 
L 277.151736 184.295627 
L 280.431074 170.358573 
L 283.710413 171.947151 
L 286.989752 175.124105 
L 290.269091 175.572214 
L 293.54843 176.369144 
L 296.827769 149.799347 
L 300.107107 144.072522 
L 303.386446 140.438767 
L 306.665785 139.127798 
L 309.945124 139.921424 
L 313.224463 169.328294 
L 316.503802 186.495569 
L 319.78314 141.49638 
L 323.062479 140.31769 
L 326.341818 143.613137 
L 329.621157 182.412544 
L 332.900496 163.80202 
L 336.179835 147.697325 
L 339.459174 161.035881 
L 342.738512 188.693632 
L 346.017851 192.658875 
L 349.29719 202.572211 
L 352.576529 209.465456 
L 355.855868 200.731166 
L 359.135207 157.384289 
L 362.414545 160.102322 
L 365.693884 164.612324 
L 368.973223 187.139451 
L 372.252562 191.616723 
L 375.531901 167.645309 
L 378.81124 143.815078 
L 382.090579 149.724167 
L 385.369917 166.344363 
L 388.649256 170.626894 
L 391.928595 169.156147 
L 395.207934 161.51759 
L 398.487273 182.710442 
" clip-path="url(#pca5e662198)" style="fill: none; stroke-dasharray: 0.37,0.16; stroke-dashoffset: 0; stroke: #2ca02c; stroke-width: 0.1"/>
   </g>
   <g id="line2d_30">
    <path d="M 73.832727 160.151412 
L 77.112066 171.507757 
L 80.391405 165.225254 
L 83.670744 164.553507 
L 86.950083 168.686349 
L 90.229421 170.287821 
L 93.50876 178.190025 
L 96.788099 183.052436 
L 100.067438 189.328895 
L 103.346777 188.969713 
L 106.626116 180.863877 
L 109.905455 169.858873 
L 113.184793 175.799795 
L 116.464132 175.690119 
L 119.743471 175.965451 
L 123.02281 171.220997 
L 126.302149 147.573284 
L 129.581488 143.091631 
L 132.860826 139.821793 
L 136.140165 139.267191 
L 139.419504 141.139173 
L 142.698843 178.774104 
L 145.978182 187.138424 
L 149.257521 139.062197 
L 152.53686 139.817297 
L 155.816198 142.301369 
L 159.095537 185.7942 
L 162.374876 169.577562 
L 165.654215 145.657322 
L 168.933554 151.949074 
L 172.212893 186.278814 
L 175.492231 191.952612 
L 178.77157 201.107161 
L 182.050909 210.104471 
L 185.330248 203.237729 
L 188.609587 162.321546 
L 191.888926 159.529219 
L 195.168264 162.213329 
L 198.447603 183.940993 
L 201.726942 191.453468 
L 205.006281 181.181222 
L 208.28562 143.592233 
L 211.564959 148.523751 
L 214.844298 165.558302 
L 218.123636 170.476545 
L 221.402975 169.695696 
L 224.682314 159.811341 
L 227.961653 180.730399 
L 231.240992 196.276548 
L 234.520331 195.385136 
L 237.799669 147.360156 
L 241.079008 148.723785 
L 244.358347 174.536077 
L 247.637686 173.585524 
L 250.917025 164.915105 
L 254.196364 165.313524 
L 257.475702 165.788576 
L 260.755041 167.504937 
L 264.03438 172.976423 
L 267.313719 180.590626 
L 270.593058 189.784919 
L 273.872397 190.227521 
L 277.151736 184.330249 
L 280.431074 170.580031 
L 283.710413 171.99547 
L 286.989752 175.270509 
L 290.269091 175.576116 
L 293.54843 176.532015 
L 296.827769 149.931533 
L 300.107107 144.175828 
L 303.386446 140.475177 
L 306.665785 139.05102 
L 309.945124 139.89919 
L 313.224463 169.585261 
L 316.503802 186.56516 
L 319.78314 141.349362 
L 323.062479 140.263511 
L 326.341818 143.406019 
L 329.621157 182.461452 
L 332.900496 164.015059 
L 336.179835 148.099032 
L 339.459174 160.661385 
L 342.738512 188.91243 
L 346.017851 192.799553 
L 349.29719 202.998957 
L 352.576529 209.825323 
L 355.855868 200.862907 
L 359.135207 157.542014 
L 362.414545 160.325077 
L 365.693884 164.579237 
L 368.973223 187.496301 
L 372.252562 192.086055 
L 375.531901 167.928861 
L 378.81124 143.908416 
L 382.090579 150.22378 
L 385.369917 166.770389 
L 388.649256 170.798635 
L 391.928595 169.339402 
L 395.207934 161.231286 
L 398.487273 182.810029 
" clip-path="url(#pca5e662198)" style="fill: none; stroke-dasharray: 0.1,0.165; stroke-dashoffset: 0; stroke: #d62728; stroke-width: 0.1"/>
   </g>
   <g id="patch_9">
    <path d="M 57.6 213.662118 
L 57.6 135.393882 
" style="fill: none; stroke: #000000; stroke-width: 0.8; stroke-linejoin: miter; stroke-linecap: square"/>
   </g>
   <g id="patch_10">
    <path d="M 414.72 213.662118 
L 414.72 135.393882 
" style="fill: none; stroke: #000000; stroke-width: 0.8; stroke-linejoin: miter; stroke-linecap: square"/>
   </g>
   <g id="patch_11">
    <path d="M 57.6 213.662118 
L 414.72 213.662118 
" style="fill: none; stroke: #000000; stroke-width: 0.8; stroke-linejoin: miter; stroke-linecap: square"/>
   </g>
   <g id="patch_12">
    <path d="M 57.6 135.393882 
L 414.72 135.393882 
" style="fill: none; stroke: #000000; stroke-width: 0.8; stroke-linejoin: miter; stroke-linecap: square"/>
   </g>
   <g id="text_28">
    <!-- vy -->
    <g transform="translate(229.0575 129.393882) scale(0.12 -0.12)">
     <use xlink:href="#DejaVuSans-76"/>
     <use xlink:href="#DejaVuSans-79" x="59.179688"/>
    </g>
   </g>
   <g id="legend_2">
    <g id="patch_13">
     <path d="M 390.890938 148.736382 
L 413.32 148.736382 
Q 413.72 148.736382 413.72 148.336382 
L 413.72 136.793882 
Q 413.72 136.393882 413.32 136.393882 
L 390.890938 136.393882 
Q 390.490938 136.393882 390.490938 136.793882 
L 390.490938 148.336382 
Q 390.490938 148.736382 390.890938 148.736382 
z
" style="fill: #ffffff; opacity: 0.8; stroke: #cccccc; stroke-linejoin: miter"/>
    </g>
    <g id="line2d_31">
     <path d="M 391.290938 138.01357 
L 393.290938 138.01357 
L 395.290938 138.01357 
" style="fill: none; stroke: #1f77b4; stroke-width: 0.1; stroke-linecap: square"/>
    </g>
    <g id="text_29">
     <!-- True -->
     <g transform="translate(396.890938 138.71357) scale(0.02 -0.02)">
      <use xlink:href="#DejaVuSans-54"/>
      <use xlink:href="#DejaVuSans-72" x="46.333984"/>
      <use xlink:href="#DejaVuSans-75" x="87.447266"/>
      <use xlink:href="#DejaVuSans-65" x="150.826172"/>
     </g>
    </g>
    <g id="line2d_32">
     <path d="M 391.290938 140.949195 
L 393.290938 140.949195 
L 395.290938 140.949195 
" style="fill: none; stroke-dasharray: 0.37,0.16; stroke-dashoffset: 0; stroke: #ff7f0e; stroke-width: 0.1"/>
    </g>
    <g id="text_30">
     <!-- Model Predicted -->
     <g transform="translate(396.890938 141.649195) scale(0.02 -0.02)">
      <use xlink:href="#DejaVuSans-4d"/>
      <use xlink:href="#DejaVuSans-6f" x="86.279297"/>
      <use xlink:href="#DejaVuSans-64" x="147.460938"/>
      <use xlink:href="#DejaVuSans-65" x="210.9375"/>
      <use xlink:href="#DejaVuSans-6c" x="272.460938"/>
      <use xlink:href="#DejaVuSans-20" x="300.244141"/>
      <use xlink:href="#DejaVuSans-50" x="332.03125"/>
      <use xlink:href="#DejaVuSans-72" x="390.583984"/>
      <use xlink:href="#DejaVuSans-65" x="429.447266"/>
      <use xlink:href="#DejaVuSans-64" x="490.970703"/>
      <use xlink:href="#DejaVuSans-69" x="554.447266"/>
      <use xlink:href="#DejaVuSans-63" x="582.230469"/>
      <use xlink:href="#DejaVuSans-74" x="637.210938"/>
      <use xlink:href="#DejaVuSans-65" x="676.419922"/>
      <use xlink:href="#DejaVuSans-64" x="737.943359"/>
     </g>
    </g>
    <g id="line2d_33">
     <path d="M 391.290938 143.88482 
L 393.290938 143.88482 
L 395.290938 143.88482 
" style="fill: none; stroke-dasharray: 0.37,0.16; stroke-dashoffset: 0; stroke: #2ca02c; stroke-width: 0.1"/>
    </g>
    <g id="text_31">
     <!-- NN Raw -->
     <g transform="translate(396.890938 144.58482) scale(0.02 -0.02)">
      <use xlink:href="#DejaVuSans-4e"/>
      <use xlink:href="#DejaVuSans-4e" x="74.804688"/>
      <use xlink:href="#DejaVuSans-20" x="149.609375"/>
      <use xlink:href="#DejaVuSans-52" x="181.396484"/>
      <use xlink:href="#DejaVuSans-61" x="248.628906"/>
      <use xlink:href="#DejaVuSans-77" x="309.908203"/>
     </g>
    </g>
    <g id="line2d_34">
     <path d="M 391.290938 146.820445 
L 393.290938 146.820445 
L 395.290938 146.820445 
" style="fill: none; stroke-dasharray: 0.1,0.165; stroke-dashoffset: 0; stroke: #d62728; stroke-width: 0.1"/>
    </g>
    <g id="text_32">
     <!-- NN1 -->
     <g transform="translate(396.890938 147.520445) scale(0.02 -0.02)">
      <use xlink:href="#DejaVuSans-4e"/>
      <use xlink:href="#DejaVuSans-4e" x="74.804688"/>
      <use xlink:href="#DejaVuSans-31" x="149.609375"/>
     </g>
    </g>
   </g>
  </g>
  <g id="axes_3">
   <g id="patch_14">
    <path d="M 57.6 307.584 
L 414.72 307.584 
L 414.72 229.315765 
L 57.6 229.315765 
z
" style="fill: #ffffff"/>
   </g>
   <g id="matplotlib.axis_5">
    <g id="xtick_13">
     <g id="line2d_35">
      <g>
       <use xlink:href="#m601f9be8af" x="73.832727" y="307.584" style="stroke: #000000; stroke-width: 0.8"/>
      </g>
     </g>
     <g id="text_33">
      <!-- 0 -->
      <g transform="translate(70.651477 322.182437) scale(0.1 -0.1)">
       <use xlink:href="#DejaVuSans-30"/>
      </g>
     </g>
    </g>
    <g id="xtick_14">
     <g id="line2d_36">
      <g>
       <use xlink:href="#m601f9be8af" x="139.419504" y="307.584" style="stroke: #000000; stroke-width: 0.8"/>
      </g>
     </g>
     <g id="text_34">
      <!-- 20 -->
      <g transform="translate(133.057004 322.182437) scale(0.1 -0.1)">
       <use xlink:href="#DejaVuSans-32"/>
       <use xlink:href="#DejaVuSans-30" x="63.623047"/>
      </g>
     </g>
    </g>
    <g id="xtick_15">
     <g id="line2d_37">
      <g>
       <use xlink:href="#m601f9be8af" x="205.006281" y="307.584" style="stroke: #000000; stroke-width: 0.8"/>
      </g>
     </g>
     <g id="text_35">
      <!-- 40 -->
      <g transform="translate(198.643781 322.182437) scale(0.1 -0.1)">
       <use xlink:href="#DejaVuSans-34"/>
       <use xlink:href="#DejaVuSans-30" x="63.623047"/>
      </g>
     </g>
    </g>
    <g id="xtick_16">
     <g id="line2d_38">
      <g>
       <use xlink:href="#m601f9be8af" x="270.593058" y="307.584" style="stroke: #000000; stroke-width: 0.8"/>
      </g>
     </g>
     <g id="text_36">
      <!-- 60 -->
      <g transform="translate(264.230558 322.182437) scale(0.1 -0.1)">
       <use xlink:href="#DejaVuSans-36"/>
       <use xlink:href="#DejaVuSans-30" x="63.623047"/>
      </g>
     </g>
    </g>
    <g id="xtick_17">
     <g id="line2d_39">
      <g>
       <use xlink:href="#m601f9be8af" x="336.179835" y="307.584" style="stroke: #000000; stroke-width: 0.8"/>
      </g>
     </g>
     <g id="text_37">
      <!-- 80 -->
      <g transform="translate(329.817335 322.182437) scale(0.1 -0.1)">
       <use xlink:href="#DejaVuSans-38"/>
       <use xlink:href="#DejaVuSans-30" x="63.623047"/>
      </g>
     </g>
    </g>
    <g id="xtick_18">
     <g id="line2d_40">
      <g>
       <use xlink:href="#m601f9be8af" x="401.766612" y="307.584" style="stroke: #000000; stroke-width: 0.8"/>
      </g>
     </g>
     <g id="text_38">
      <!-- 100 -->
      <g transform="translate(392.222862 322.182437) scale(0.1 -0.1)">
       <use xlink:href="#DejaVuSans-31"/>
       <use xlink:href="#DejaVuSans-30" x="63.623047"/>
       <use xlink:href="#DejaVuSans-30" x="127.246094"/>
      </g>
     </g>
    </g>
    <g id="text_39">
     <!-- Timestep -->
     <g transform="translate(213.110781 335.860562) scale(0.1 -0.1)">
      <use xlink:href="#DejaVuSans-54"/>
      <use xlink:href="#DejaVuSans-69" x="57.958984"/>
      <use xlink:href="#DejaVuSans-6d" x="85.742188"/>
      <use xlink:href="#DejaVuSans-65" x="183.154297"/>
      <use xlink:href="#DejaVuSans-73" x="244.677734"/>
      <use xlink:href="#DejaVuSans-74" x="296.777344"/>
      <use xlink:href="#DejaVuSans-65" x="335.986328"/>
      <use xlink:href="#DejaVuSans-70" x="397.509766"/>
     </g>
    </g>
   </g>
   <g id="matplotlib.axis_6">
    <g id="ytick_7">
     <g id="line2d_41">
      <g>
       <use xlink:href="#mb1f94cc85b" x="57.6" y="288.359628" style="stroke: #000000; stroke-width: 0.8"/>
      </g>
     </g>
     <g id="text_40">
      <!-- −1 -->
      <g transform="translate(35.857813 292.158847) scale(0.1 -0.1)">
       <use xlink:href="#DejaVuSans-2212"/>
       <use xlink:href="#DejaVuSans-31" x="83.789062"/>
      </g>
     </g>
    </g>
    <g id="ytick_8">
     <g id="line2d_42">
      <g>
       <use xlink:href="#mb1f94cc85b" x="57.6" y="261.505497" style="stroke: #000000; stroke-width: 0.8"/>
      </g>
     </g>
     <g id="text_41">
      <!-- 0 -->
      <g transform="translate(44.2375 265.304716) scale(0.1 -0.1)">
       <use xlink:href="#DejaVuSans-30"/>
      </g>
     </g>
    </g>
    <g id="ytick_9">
     <g id="line2d_43">
      <g>
       <use xlink:href="#mb1f94cc85b" x="57.6" y="234.651366" style="stroke: #000000; stroke-width: 0.8"/>
      </g>
     </g>
     <g id="text_42">
      <!-- 1 -->
      <g transform="translate(44.2375 238.450585) scale(0.1 -0.1)">
       <use xlink:href="#DejaVuSans-31"/>
      </g>
     </g>
    </g>
    <g id="text_43">
     <!-- Yaw Rate [rad/s] -->
     <g transform="translate(29.778125 309.094414) rotate(-90) scale(0.1 -0.1)">
      <defs>
       <path id="DejaVuSans-59" d="M -13 4666 
L 666 4666 
L 1959 2747 
L 3244 4666 
L 3922 4666 
L 2272 2222 
L 2272 0 
L 1638 0 
L 1638 2222 
L -13 4666 
z
" transform="scale(0.015625)"/>
      </defs>
      <use xlink:href="#DejaVuSans-59"/>
      <use xlink:href="#DejaVuSans-61" x="47.333984"/>
      <use xlink:href="#DejaVuSans-77" x="108.613281"/>
      <use xlink:href="#DejaVuSans-20" x="190.400391"/>
      <use xlink:href="#DejaVuSans-52" x="222.1875"/>
      <use xlink:href="#DejaVuSans-61" x="289.419922"/>
      <use xlink:href="#DejaVuSans-74" x="350.699219"/>
      <use xlink:href="#DejaVuSans-65" x="389.908203"/>
      <use xlink:href="#DejaVuSans-20" x="451.431641"/>
      <use xlink:href="#DejaVuSans-5b" x="483.21875"/>
      <use xlink:href="#DejaVuSans-72" x="522.232422"/>
      <use xlink:href="#DejaVuSans-61" x="563.345703"/>
      <use xlink:href="#DejaVuSans-64" x="624.625"/>
      <use xlink:href="#DejaVuSans-2f" x="688.101562"/>
      <use xlink:href="#DejaVuSans-73" x="721.792969"/>
      <use xlink:href="#DejaVuSans-5d" x="773.892578"/>
     </g>
    </g>
   </g>
   <g id="line2d_44">
    <path d="M 73.832727 257.981463 
L 77.112066 266.884341 
L 80.391405 262.323012 
L 83.670744 261.480352 
L 86.950083 265.572022 
L 90.229421 268.624959 
L 93.50876 282.306369 
L 96.788099 285.286631 
L 100.067438 288.273537 
L 103.346777 287.872112 
L 106.626116 281.20428 
L 109.905455 267.582167 
L 113.184793 279.520404 
L 116.464132 281.98295 
L 119.743471 282.697099 
L 123.02281 273.49295 
L 126.302149 239.848926 
L 129.581488 236.070799 
L 132.860826 234.045064 
L 136.140165 233.228296 
L 139.419504 234.732341 
L 142.698843 274.481491 
L 145.978182 286.571168 
L 149.257521 233.121814 
L 152.53686 234.138094 
L 155.816198 239.208026 
L 159.095537 284.391289 
L 162.374876 266.736375 
L 165.654215 236.567783 
L 168.933554 245.583951 
L 172.212893 285.38056 
L 175.492231 289.812178 
L 178.77157 294.02965 
L 182.050909 300.624343 
L 185.330248 296.171705 
L 188.609587 257.518906 
L 191.888926 255.885823 
L 195.168264 258.167544 
L 198.447603 285.975295 
L 201.726942 291.413271 
L 205.006281 280.995168 
L 208.28562 237.32042 
L 211.564959 239.793823 
L 214.844298 263.56774 
L 218.123636 272.31429 
L 221.402975 279.435153 
L 224.682314 253.555879 
L 227.961653 283.524763 
L 231.240992 293.148144 
L 234.520331 290.001825 
L 237.799669 243.724139 
L 241.079008 242.463068 
L 244.358347 274.677823 
L 247.637686 279.174352 
L 250.917025 258.662503 
L 254.196364 262.562606 
L 257.475702 263.735082 
L 260.755041 268.424769 
L 264.03438 278.708752 
L 267.313719 282.988919 
L 270.593058 288.248699 
L 273.872397 288.503036 
L 277.151736 285.375048 
L 280.431074 268.436587 
L 283.710413 271.84433 
L 286.989752 281.815907 
L 290.269091 282.208101 
L 293.54843 282.932666 
L 296.827769 241.823853 
L 300.107107 236.400893 
L 303.386446 235.235454 
L 306.665785 233.131326 
L 309.945124 233.745299 
L 313.224463 266.862874 
L 316.503802 287.011294 
L 319.78314 234.116994 
L 323.062479 233.952131 
L 326.341818 236.735504 
L 329.621157 284.196682 
L 332.900496 259.60652 
L 336.179835 244.019511 
L 339.459174 256.163931 
L 342.738512 287.945632 
L 346.017851 289.40911 
L 349.29719 295.798815 
L 352.576529 300.322164 
L 355.855868 294.192494 
L 359.135207 254.100839 
L 362.414545 256.847614 
L 365.693884 262.466888 
L 368.973223 289.634622 
L 372.252562 291.539426 
L 375.531901 264.074842 
L 378.81124 237.790825 
L 382.090579 241.00702 
L 385.369917 264.743218 
L 388.649256 275.870639 
L 391.928595 279.730163 
L 395.207934 254.169061 
L 398.487273 286.271887 
" clip-path="url(#p66c1ad84fb)" style="fill: none; stroke: #1f77b4; stroke-width: 0.1; stroke-linecap: square"/>
   </g>
   <g id="line2d_45">
    <path d="M 73.832727 256.633119 
L 77.112066 265.065194 
L 80.391405 261.997618 
L 83.670744 261.498731 
L 86.950083 265.618999 
L 90.229421 269.503568 
L 93.50876 285.102206 
L 96.788099 286.865514 
L 100.067438 290.219963 
L 103.346777 289.550126 
L 106.626116 279.053423 
L 109.905455 266.304058 
L 113.184793 278.236887 
L 116.464132 281.523535 
L 119.743471 282.54057 
L 123.02281 270.382205 
L 126.302149 236.2774 
L 129.581488 234.1747 
L 132.860826 232.873412 
L 136.140165 233.563948 
L 139.419504 234.891498 
L 142.698843 277.272355 
L 145.978182 284.521293 
L 149.257521 233.546333 
L 152.53686 234.25878 
L 155.816198 242.286034 
L 159.095537 286.122884 
L 162.374876 265.567684 
L 165.654215 236.063934 
L 168.933554 248.543743 
L 172.212893 288.556507 
L 175.492231 292.233216 
L 178.77157 297.487711 
L 182.050909 304.026353 
L 185.330248 297.867497 
L 188.609587 257.400339 
L 191.888926 255.630223 
L 195.168264 258.979686 
L 198.447603 285.864309 
L 201.726942 291.53222 
L 205.006281 276.145536 
L 208.28562 235.412552 
L 211.564959 238.703945 
L 214.844298 263.685223 
L 218.123636 272.250716 
L 221.402975 278.828964 
L 224.682314 249.316244 
L 227.961653 283.837616 
L 231.240992 294.673763 
L 234.520331 289.023493 
L 237.799669 243.610379 
L 241.079008 241.276302 
L 244.358347 275.979369 
L 247.637686 280.302156 
L 250.917025 259.283058 
L 254.196364 262.45818 
L 257.475702 263.974572 
L 260.755041 269.474583 
L 264.03438 281.304988 
L 267.313719 285.238441 
L 270.593058 290.666807 
L 273.872397 290.25077 
L 277.151736 286.119842 
L 280.431074 267.703549 
L 283.710413 272.019797 
L 286.989752 281.372909 
L 290.269091 282.338418 
L 293.54843 281.133952 
L 296.827769 239.863295 
L 300.107107 234.461452 
L 303.386446 233.307494 
L 306.665785 233.358488 
L 309.945124 233.681799 
L 313.224463 267.813846 
L 316.503802 288.883996 
L 319.78314 234.269728 
L 323.062479 233.775764 
L 326.341818 237.210205 
L 329.621157 285.519534 
L 332.900496 259.169111 
L 336.179835 244.667631 
L 339.459174 258.126865 
L 342.738512 290.257919 
L 346.017851 291.993272 
L 349.29719 298.819699 
L 352.576529 303.581481 
L 355.855868 295.123075 
L 359.135207 253.02146 
L 362.414545 256.083981 
L 365.693884 262.111912 
L 368.973223 290.438977 
L 372.252562 291.81904 
L 375.531901 264.561043 
L 378.81124 235.770859 
L 382.090579 240.634272 
L 385.369917 264.076004 
L 388.649256 275.517644 
L 391.928595 279.384579 
L 395.207934 252.281994 
L 398.487273 286.606758 
" clip-path="url(#p66c1ad84fb)" style="fill: none; stroke-dasharray: 0.37,0.16; stroke-dashoffset: 0; stroke: #ff7f0e; stroke-width: 0.1"/>
   </g>
   <g id="line2d_46">
    <path d="M 73.832727 257.598125 
L 77.112066 263.465673 
L 80.391405 262.093605 
L 83.670744 261.510431 
L 86.950083 265.791785 
L 90.229421 268.975291 
L 93.50876 283.364642 
L 96.788099 284.643898 
L 100.067438 288.246281 
L 103.346777 287.752285 
L 106.626116 280.155544 
L 109.905455 267.726279 
L 113.184793 278.977057 
L 116.464132 281.419693 
L 119.743471 282.288806 
L 123.02281 273.67086 
L 126.302149 239.29406 
L 129.581488 236.29437 
L 132.860826 234.324188 
L 136.140165 233.871738 
L 139.419504 235.203898 
L 142.698843 275.48211 
L 145.978182 285.616199 
L 149.257521 233.440047 
L 152.53686 234.672686 
L 155.816198 237.765211 
L 159.095537 283.988603 
L 162.374876 267.202097 
L 165.654215 237.18517 
L 168.933554 245.423666 
L 172.212893 285.785866 
L 175.492231 289.382249 
L 178.77157 294.031903 
L 182.050909 299.827443 
L 185.330248 295.644983 
L 188.609587 258.639613 
L 191.888926 256.035648 
L 195.168264 258.440089 
L 198.447603 285.486143 
L 201.726942 290.16039 
L 205.006281 276.588896 
L 208.28562 237.280235 
L 211.564959 240.136203 
L 214.844298 263.470175 
L 218.123636 272.074285 
L 221.402975 278.903684 
L 224.682314 252.875775 
L 227.961653 282.102267 
L 231.240992 292.295273 
L 234.520331 289.689533 
L 237.799669 244.260815 
L 241.079008 242.088512 
L 244.358347 273.53877 
L 247.637686 279.436369 
L 250.917025 258.765545 
L 254.196364 262.824261 
L 257.475702 263.462477 
L 260.755041 267.447473 
L 264.03438 279.518973 
L 267.313719 282.711956 
L 270.593058 288.371329 
L 273.872397 288.511854 
L 277.151736 284.76609 
L 280.431074 268.460083 
L 283.710413 271.730205 
L 286.989752 281.340708 
L 290.269091 282.053831 
L 293.54843 282.146252 
L 296.827769 241.696948 
L 300.107107 236.766212 
L 303.386446 235.124627 
L 306.665785 233.678018 
L 309.945124 233.963451 
L 313.224463 266.335355 
L 316.503802 286.895661 
L 319.78314 236.355273 
L 323.062479 234.210152 
L 326.341818 236.366738 
L 329.621157 283.775309 
L 332.900496 260.636431 
L 336.179835 244.316535 
L 339.459174 257.116148 
L 342.738512 287.665437 
L 346.017851 289.037244 
L 349.29719 295.270139 
L 352.576529 299.541181 
L 355.855868 293.453179 
L 359.135207 254.426492 
L 362.414545 256.794808 
L 365.693884 261.283129 
L 368.973223 289.024219 
L 372.252562 290.486803 
L 375.531901 263.232128 
L 378.81124 237.483257 
L 382.090579 241.691785 
L 385.369917 263.475282 
L 388.649256 275.646125 
L 391.928595 278.957973 
L 395.207934 253.665488 
L 398.487273 284.080233 
" clip-path="url(#p66c1ad84fb)" style="fill: none; stroke-dasharray: 0.37,0.16; stroke-dashoffset: 0; stroke: #2ca02c; stroke-width: 0.1"/>
   </g>
   <g id="line2d_47">
    <path d="M 73.832727 257.951726 
L 77.112066 265.344877 
L 80.391405 262.096558 
L 83.670744 261.60824 
L 86.950083 266.087389 
L 90.229421 269.24066 
L 93.50876 283.802665 
L 96.788099 285.14781 
L 100.067438 288.729281 
L 103.346777 288.226227 
L 106.626116 280.984917 
L 109.905455 267.968634 
L 113.184793 279.428552 
L 116.464132 281.825107 
L 119.743471 282.66586 
L 123.02281 273.78265 
L 126.302149 238.962401 
L 129.581488 236.108772 
L 132.860826 234.082301 
L 136.140165 233.617271 
L 139.419504 234.97351 
L 142.698843 275.611769 
L 145.978182 286.904761 
L 149.257521 233.095534 
L 152.53686 234.434457 
L 155.816198 238.023342 
L 159.095537 284.133882 
L 162.374876 267.353817 
L 165.654215 236.917294 
L 168.933554 245.295596 
L 172.212893 286.068092 
L 175.492231 289.920173 
L 178.77157 294.859419 
L 182.050909 300.716918 
L 185.330248 295.978084 
L 188.609587 259.05175 
L 191.888926 256.072843 
L 195.168264 258.489862 
L 198.447603 286.167948 
L 201.726942 290.945757 
L 205.006281 276.509241 
L 208.28562 236.908303 
L 211.564959 239.968736 
L 214.844298 263.48747 
L 218.123636 272.328576 
L 221.402975 279.247564 
L 224.682314 252.620629 
L 227.961653 283.055672 
L 231.240992 292.991643 
L 234.520331 291.089506 
L 237.799669 244.087337 
L 241.079008 241.981286 
L 244.358347 274.439786 
L 247.637686 279.675301 
L 250.917025 258.980528 
L 254.196364 262.930372 
L 257.475702 263.578701 
L 260.755041 267.710126 
L 264.03438 280.092021 
L 267.313719 283.26532 
L 270.593058 288.795325 
L 273.872397 289.070306 
L 277.151736 285.166768 
L 280.431074 268.717538 
L 283.710413 271.874143 
L 286.989752 281.74609 
L 290.269091 282.402932 
L 293.54843 282.820006 
L 296.827769 241.364609 
L 300.107107 236.591574 
L 303.386446 234.89016 
L 306.665785 233.375657 
L 309.945124 233.825672 
L 313.224463 266.80684 
L 316.503802 287.253472 
L 319.78314 236.018203 
L 323.062479 234.013031 
L 326.341818 236.182826 
L 329.621157 283.95823 
L 332.900496 260.744404 
L 336.179835 244.634385 
L 339.459174 257.023464 
L 342.738512 288.212156 
L 346.017851 289.543968 
L 349.29719 296.11189 
L 352.576529 300.43632 
L 355.855868 293.957031 
L 359.135207 254.427194 
L 362.414545 256.838406 
L 365.693884 261.419563 
L 368.973223 289.750139 
L 372.252562 291.322588 
L 375.531901 263.429766 
L 378.81124 237.200787 
L 382.090579 241.613424 
L 385.369917 263.84584 
L 388.649256 275.866822 
L 391.928595 279.299158 
L 395.207934 253.666245 
L 398.487273 284.767384 
" clip-path="url(#p66c1ad84fb)" style="fill: none; stroke-dasharray: 0.1,0.165; stroke-dashoffset: 0; stroke: #d62728; stroke-width: 0.1"/>
   </g>
   <g id="patch_15">
    <path d="M 57.6 307.584 
L 57.6 229.315765 
" style="fill: none; stroke: #000000; stroke-width: 0.8; stroke-linejoin: miter; stroke-linecap: square"/>
   </g>
   <g id="patch_16">
    <path d="M 414.72 307.584 
L 414.72 229.315765 
" style="fill: none; stroke: #000000; stroke-width: 0.8; stroke-linejoin: miter; stroke-linecap: square"/>
   </g>
   <g id="patch_17">
    <path d="M 57.6 307.584 
L 414.72 307.584 
" style="fill: none; stroke: #000000; stroke-width: 0.8; stroke-linejoin: miter; stroke-linecap: square"/>
   </g>
   <g id="patch_18">
    <path d="M 57.6 229.315765 
L 414.72 229.315765 
" style="fill: none; stroke: #000000; stroke-width: 0.8; stroke-linejoin: miter; stroke-linecap: square"/>
   </g>
   <g id="text_44">
    <!-- yaw rate -->
    <g transform="translate(209.930625 223.315765) scale(0.12 -0.12)">
     <use xlink:href="#DejaVuSans-79"/>
     <use xlink:href="#DejaVuSans-61" x="59.179688"/>
     <use xlink:href="#DejaVuSans-77" x="120.458984"/>
     <use xlink:href="#DejaVuSans-20" x="202.246094"/>
     <use xlink:href="#DejaVuSans-72" x="234.033203"/>
     <use xlink:href="#DejaVuSans-61" x="275.146484"/>
     <use xlink:href="#DejaVuSans-74" x="336.425781"/>
     <use xlink:href="#DejaVuSans-65" x="375.634766"/>
    </g>
   </g>
   <g id="legend_3">
    <g id="patch_19">
     <path d="M 390.890938 242.658265 
L 413.32 242.658265 
Q 413.72 242.658265 413.72 242.258265 
L 413.72 230.715765 
Q 413.72 230.315765 413.32 230.315765 
L 390.890938 230.315765 
Q 390.490938 230.315765 390.490938 230.715765 
L 390.490938 242.258265 
Q 390.490938 242.658265 390.890938 242.658265 
z
" style="fill: #ffffff; opacity: 0.8; stroke: #cccccc; stroke-linejoin: miter"/>
    </g>
    <g id="line2d_48">
     <path d="M 391.290938 231.935452 
L 393.290938 231.935452 
L 395.290938 231.935452 
" style="fill: none; stroke: #1f77b4; stroke-width: 0.1; stroke-linecap: square"/>
    </g>
    <g id="text_45">
     <!-- True -->
     <g transform="translate(396.890938 232.635452) scale(0.02 -0.02)">
      <use xlink:href="#DejaVuSans-54"/>
      <use xlink:href="#DejaVuSans-72" x="46.333984"/>
      <use xlink:href="#DejaVuSans-75" x="87.447266"/>
      <use xlink:href="#DejaVuSans-65" x="150.826172"/>
     </g>
    </g>
    <g id="line2d_49">
     <path d="M 391.290938 234.871077 
L 393.290938 234.871077 
L 395.290938 234.871077 
" style="fill: none; stroke-dasharray: 0.37,0.16; stroke-dashoffset: 0; stroke: #ff7f0e; stroke-width: 0.1"/>
    </g>
    <g id="text_46">
     <!-- Model Predicted -->
     <g transform="translate(396.890938 235.571077) scale(0.02 -0.02)">
      <use xlink:href="#DejaVuSans-4d"/>
      <use xlink:href="#DejaVuSans-6f" x="86.279297"/>
      <use xlink:href="#DejaVuSans-64" x="147.460938"/>
      <use xlink:href="#DejaVuSans-65" x="210.9375"/>
      <use xlink:href="#DejaVuSans-6c" x="272.460938"/>
      <use xlink:href="#DejaVuSans-20" x="300.244141"/>
      <use xlink:href="#DejaVuSans-50" x="332.03125"/>
      <use xlink:href="#DejaVuSans-72" x="390.583984"/>
      <use xlink:href="#DejaVuSans-65" x="429.447266"/>
      <use xlink:href="#DejaVuSans-64" x="490.970703"/>
      <use xlink:href="#DejaVuSans-69" x="554.447266"/>
      <use xlink:href="#DejaVuSans-63" x="582.230469"/>
      <use xlink:href="#DejaVuSans-74" x="637.210938"/>
      <use xlink:href="#DejaVuSans-65" x="676.419922"/>
      <use xlink:href="#DejaVuSans-64" x="737.943359"/>
     </g>
    </g>
    <g id="line2d_50">
     <path d="M 391.290938 237.806702 
L 393.290938 237.806702 
L 395.290938 237.806702 
" style="fill: none; stroke-dasharray: 0.37,0.16; stroke-dashoffset: 0; stroke: #2ca02c; stroke-width: 0.1"/>
    </g>
    <g id="text_47">
     <!-- NN Raw -->
     <g transform="translate(396.890938 238.506702) scale(0.02 -0.02)">
      <use xlink:href="#DejaVuSans-4e"/>
      <use xlink:href="#DejaVuSans-4e" x="74.804688"/>
      <use xlink:href="#DejaVuSans-20" x="149.609375"/>
      <use xlink:href="#DejaVuSans-52" x="181.396484"/>
      <use xlink:href="#DejaVuSans-61" x="248.628906"/>
      <use xlink:href="#DejaVuSans-77" x="309.908203"/>
     </g>
    </g>
    <g id="line2d_51">
     <path d="M 391.290938 240.742327 
L 393.290938 240.742327 
L 395.290938 240.742327 
" style="fill: none; stroke-dasharray: 0.1,0.165; stroke-dashoffset: 0; stroke: #d62728; stroke-width: 0.1"/>
    </g>
    <g id="text_48">
     <!-- NN1 -->
     <g transform="translate(396.890938 241.442327) scale(0.02 -0.02)">
      <use xlink:href="#DejaVuSans-4e"/>
      <use xlink:href="#DejaVuSans-4e" x="74.804688"/>
      <use xlink:href="#DejaVuSans-31" x="149.609375"/>
     </g>
    </g>
   </g>
  </g>
 </g>
 <defs>
  <clipPath id="p672fc4196a">
   <rect x="57.6" y="41.472" width="357.12" height="78.268235"/>
  </clipPath>
  <clipPath id="pca5e662198">
   <rect x="57.6" y="135.393882" width="357.12" height="78.268235"/>
  </clipPath>
  <clipPath id="p66c1ad84fb">
   <rect x="57.6" y="229.315765" width="357.12" height="78.268235"/>
  </clipPath>
 </defs>
</svg>
